<svg xmlns="http://www.w3.org/2000/svg" width="100" height="28" viewBox="0 0 100 28"><title>Banco Agrario de Colombia logo</title><path d="M-566.5-193.3q-4.7 0-7.4 2.5a8 8 0 0 0-2.6 6q0 3.8 2.6 6 2.7 2.5 7.4 2.5c4.7 0 5.6-.8 7.6-2.4q3-2.4 2.9-6c-.1-3.6-1-4.4-3-6.1q-2.9-2.5-7.5-2.5m-614 .1a213 213 0 0 0-20.8 1.1l-5.3.7v85.2q3.2.7 7 1a148 148 0 0 0 14.7.8h5.4a52 52 0 0 0 12.5-1.5q6-1.5 10.7-4.6a19 19 0 0 0 7.6-8q2.9-4.8 2.9-11.4 0-5-1.5-8.8a19 19 0 0 0-3.9-6.3 18 18 0 0 0-5.8-4 29 29 0 0 0-7-2.2v-.7q4.2-1 7.2-3 3-2.1 4.8-4.7a18 18 0 0 0 2.6-5.9q.8-3.1.8-6.4 0-6.4-2.7-10.6t-7.2-6.5a27 27 0 0 0-10.2-3.3q-5.7-.9-11.8-.9m342.7.6-31 87h16.9l6.5-19.2h26.5l6.9 19.1h17.8l-31.1-86.9zm-342.5 13.6q2.9 0 5.5.5t4.6 1.7q2 1.3 3.3 3.3t1.2 5.2q0 4.8-3.4 7.7-3.5 3-8 4.4l-3.8.4-4 .1h-5.5v-22.8q1.5-.3 4.2-.4zm348 7.9h.6l2.6 13.5 6.4 19.3H-841l6.3-19.2zm-149.2 2q-13.4 0-20.4 8.5t-7 24.1q0 7.3 1.4 13.4 1.5 6 4.6 10.3 3.3 4.2 8.3 6.6 5.2 2.3 12.6 2.3 5.5 0 10.8-1.4 5.1-1.5 9-4.2l-4-12.1q-2 1.5-5 2.5c-3 1-4.2 1-6.9 1q-3.7 0-6.5-1.4t-4.4-3.9-2.6-5.7-.9-7.3q0-9.7 3.5-14c3.5-4.3 5.7-4.4 10-4.4q3.7 0 6.5.7a32 32 0 0 1 5.6 2l3.8-13a39 39 0 0 0-18.4-4m53.2 0q-13.8 0-21.4 8.5a35 35 0 0 0-7.7 24.1q0 7.3 1.8 13.4 1.8 6 5.4 10.3c3.6 4.3 5.5 5 9 6.6q5.5 2.3 13 2.3 13.7 0 21.3-8.4t7.6-24.2q0-7.3-1.8-13.3t-5.3-10.3c-3.5-4.3-5.4-5-9-6.6a33 33 0 0 0-12.9-2.3m411.9 0q-13.8 0-21.5 8.4t-7.6 24.1q0 7.3 1.7 13.4 1.8 6 5.4 10.3c3.6 4.3 5.5 5 9.1 6.6q5.4 2.3 12.8 2.3 13.9 0 21.4-8.4 7.6-8.5 7.6-24.2 0-7.3-1.7-13.3-1.9-6-5.4-10.3c-3.5-4.3-5.4-5-9-6.6a33 33 0 0 0-12.8-2.3m-522.1 0q-7.4 0-12.1 3-4.8 3-7.5 6.9h-.5l-1.9-8.2h-12.7v61.7h16v-40q1.4-3.9 4.5-6.6 3.2-2.7 7.7-2.6 5.3 0 7.4 3.3t2.1 10.8v35.1h16V-144a50 50 0 0 0-1.2-12q-1.2-4.8-3.7-7.7a14 14 0 0 0-6-4q-3.6-1.3-8.1-1.3m276.7.2q-15 0-23 8.5-7.8 8.5-7.8 25 0 15.8 5.9 23.3 5.8 7.4 17.8 7.4 11 0 15.3-5.9h.5v4q0 6.6-3 10.2t-11.5 3.6q-5.5 0-9.3-1l-6.6-2.3-3.3 12.7q2.6 1.4 7.7 2.6c5.1 1.2 8 1.2 14 1.2a30 30 0 0 0 20.3-6.3q7.3-6.5 7.3-19.8v-59.5q-3.9-1.5-10.2-2.6a78 78 0 0 0-14-1m67.1.2q-4.8 0-8.3 2.4c-3.5 2.4-4.3 4-5.7 7h-.5l-1.9-8.1h-12.4v61.7h16v-39.9a11 11 0 0 1 4-5.8q2.7-2.4 7.1-2.3 3 0 7 1.3l2-15q-4-1.3-7.3-1.3m104.5 0q-4.8 0-8.4 2.4-3.6 2.5-5.7 7h-.5l-1.8-8.1H-619v61.7h16v-39.9a11 11 0 0 1 4-5.8q2.8-2.3 7.2-2.3 3 0 6.9 1.3l2-15q-3.9-1.3-7.2-1.3m-518.2 0q-7.3 0-14.1 1.4-6.8 1.2-11.7 3.5l3.8 12q3.4-1.6 8.8-2.6t10.2-1q6.4 0 8.3 3 1.8 3 1 10-8.2-.4-14.8.5t-11.4 3.3a18 18 0 0 0-7.2 6.3 17 17 0 0 0-2.5 9.6q0 4 1.3 7.3c1.3 3.3 2.2 4 3.8 5.7q2.5 2.4 6 3.7 3.3 1.3 7.7 1.3 7 0 11.3-2.8t6.9-6.6h.6l2.6 8.5h13q-1.5-4.5-1.8-9.4a116 116 0 0 1-.3-10.4q0-5.2.4-10.8.4-5.4.4-10.9 0-5-1-8.8-1.2-4-3.7-6.8-2.6-2.9-6.8-4.4-4.4-1.5-10.8-1.5m453.7 0q-7.5 0-14.2 1.3a52 52 0 0 0-11.7 3.5l3.8 12q3.5-1.6 8.8-2.6t10.2-1q6.4 0 8.3 3t1 10q-8.2-.4-14.8.5t-11.3 3.3c-4.7 2.4-5.6 3.7-7.3 6.3a17 17 0 0 0-2.5 9.6q0 4 1.3 7.3c1.3 3.3 2.2 4 3.9 5.7q2.4 2.4 5.9 3.7t7.8 1.3q6.9 0 11.2-2.8 4.5-2.8 6.9-6.6h.6l2.6 8.5h13a39 39 0 0 1-1.8-9.4 116 116 0 0 1 .2-21.2q.3-5.4.3-10.9 0-5-1-8.8-1.1-4-3.6-6.8-2.6-2.9-6.9-4.4t-10.7-1.5m80.4 1.2v61.7h16v-61.7zm-354 11.9q6.9 0 9.7 5.2t2.8 13.8q0 9.8-3 14.4-3.2 4.5-9.5 4.6-3.2 0-5.7-1.5-2.4-1.3-3.9-4a17 17 0 0 1-2.2-6 36 36 0 0 1-.7-7.6q0-10.1 3.3-14.5a11 11 0 0 1 9.2-4.4m411.9 0q6.8 0 9.6 5.2t2.8 13.8q0 9.8-3 14.4-3.1 4.5-9.4 4.6-3.4 0-5.8-1.5-2.4-1.3-3.9-4a17 17 0 0 1-2.2-6 36 36 0 0 1-.7-7.6q0-10.1 3.3-14.5a11 11 0 0 1 9.3-4.4m-246.6.2q5.7 0 9.5 1.6v27.8q-1.4 4.2-3.9 6.2a11 11 0 0 1-7.2 2.1 10 10 0 0 1-8.5-4.6q-3-4.7-3-13.7 0-10.2 3.5-14.8 3.5-4.5 9.6-4.6m-427.4 12.3h9q3.1 0 6.4.4 3.1.4 5.8 1.7a11 11 0 0 1 4.2 3.5q1.5 2.4 1.6 6.4a11 11 0 0 1-5 9.3 16 16 0 0 1-5.1 2.3 24 24 0 0 1-6 .7h-2.8l-3.2-.1-3-.2-2-.4zm84.6 10 3.7.2v8a15 15 0 0 1-4.1 4.7 12 12 0 0 1-7.7 2.1q-3.6 0-5.6-1.9c-2-1.9-2-3-2-5.3q0-2.5 1.5-4.1 1.7-1.5 4.4-2.5t6.2-1zm453.6 0 3.8.2v8a15 15 0 0 1-4.2 4.7 12 12 0 0 1-7.7 2.1q-3.5 0-5.6-1.9c-2-1.9-2-3-2-5.3q0-2.5 1.6-4.1t4.3-2.5c2.7-.9 4-1 6.2-1zM-1009-83.4q-6.9 0-13.8 2.2t-12.5 7.6-9.2 13.8a57 57 0 0 0-3.5 21.2q0 12.3 3.2 20.8a38 38 0 0 0 8.4 14q5.3 5.3 12.3 7.7t14.7 2.4a63 63 0 0 0 12.6-1.2q6-1.2 10-4l-3.4-13.8q-2.9 1.8-6.7 2.9c-3.8 1-5.7 1-9.4 1q-5.9 0-10.4-2-4.5-2.2-7.5-6.1-3-4-4.5-9.4c-1.5-5.4-1.5-7.8-1.5-12.2q0-15.3 6.2-22.6t16.5-7.3q5.5 0 9.4.6t6.8 2l3.3-14.3q-3.3-1.4-8.5-2.4-5.1-1-12.5-1m371.2.4q-4.7 0-7.4 2.5-2.6 2.6-2.6 6.1c0 3.5.8 4.4 2.6 6s4.3 2.4 7.4 2.4 5.6-.8 7.6-2.4 2.9-3.6 2.9-6-1-4.4-3-6q-2.8-2.6-7.5-2.6m-276.6 1.3v74q0 7.6 3.7 10.8c3.7 3.2 6 3.3 10.7 3.3a36 36 0 0 0 14.5-3l-1.7-12.5-3.5 1.1q-1.5.3-3 .2-2.4 0-3.5-2c-1.1-2-1.1-3.3-1.1-6.2v-65.7zm-253.6 0v25.1a26 26 0 0 0-5-1.4 36 36 0 0 0-6.2-.5q-13.8 0-21 8.8c-7.2 8.8-7.1 14-7.1 24.6q0 16.2 6.4 23.9t18 7.6q6.3 0 11-2.6 4.6-2.7 7-7h.5l2.2 8h11.5q-1-6.3-1.1-11.4l-.1-10.4v-64.6zm455 0V2q3.3 1.5 9.8 2.9c6.5 1.4 9.2 1.3 14.5 1.3q14.3 0 22.5-8.6t8.1-25.3q0-15.6-5.8-23.1-6-7.6-17-7.6-5 0-9 1.7a18 18 0 0 0-6.7 4.7h-.5v-29.6zm-398.3 23q-14 0-21.8 8.1-7.7 8.2-7.8 24.4 0 15.2 7 24 6.8 8.6 21.8 8.6 7.2 0 13.5-2a31 31 0 0 0 10-5l-5.2-10.5a26 26 0 0 1-15.2 4.7q-8.2 0-11.8-4a18 18 0 0 1-4-11.7h37a79 79 0 0 0 1.2-11.7 30 30 0 0 0-2.1-12 20 20 0 0 0-13.4-11.7 34 34 0 0 0-9.2-1.2m156.4 0q-13.8 0-21.5 8.5t-7.7 24q0 7.5 1.8 13.4t5.4 10.3c3.6 4.3 5.5 5 9.1 6.6q5.4 2.3 12.8 2.3 13.9 0 21.4-8.4 7.6-8.4 7.6-24.1 0-7.3-1.8-13.3t-5.3-10.3c-3.5-4.3-5.4-5-9-6.7a33 33 0 0 0-12.8-2.3m102.4 0q-13.8 0-21.4 8.5-7.7 8.4-7.7 24 0 7.5 1.8 13.4t5.4 10.3q3.7 4.3 9 6.6 5.5 2.3 13 2.3 13.7 0 21.3-8.4t7.6-24.1q0-7.3-1.8-13.3t-5.3-10.3-9-6.7a33 33 0 0 0-12.9-2.3m73.4 0q-7 0-11.3 3c-4.3 3-5.3 4.3-7.2 7h-.5l-1.8-8.2h-12.5V4.6h16v-41q1.5-3.6 4-6a10 10 0 0 1 6.8-2.2q5.1 0 6.6 3.6 1.7 3.6 1.7 12V4.7h16v-40.4a14 14 0 0 1 3.8-6.5q2.6-2.3 6.8-2.3 5.3 0 6.9 3.6 1.5 3.5 1.5 11V4.5h16v-37q0-7.7-1-12.8c-1-5-2-6-3.5-8a12 12 0 0 0-5.9-4.3q-3.6-1.2-8.8-1.3-6.3 0-10.8 2.9a17 17 0 0 0-7.2 7.6 16 16 0 0 0-6-8 18 18 0 0 0-9.6-2.5m190.8.5q-7.3 0-14.2 1.3a52 52 0 0 0-11.7 3.5l3.8 12q3.5-1.6 8.9-2.6t10.1-1q6.4 0 8.3 3c2 3 1.6 5.4 1 10q-8.2-.4-14.8.5-6.5 1-11.3 3.3-4.7 2.4-7.3 6.3c-2.6 4-2.5 5.8-2.5 9.6q0 4 1.4 7.3c1.4 3.3 2.2 4.1 3.8 5.7q2.5 2.4 6 3.7a22 22 0 0 0 7.7 1.3q6.9 0 11.3-2.8t6.8-6.6h.6l2.6 8.5h13.1q-1.5-4.4-1.9-9.4a116 116 0 0 1-.3-10.3q0-5.3.5-10.8.3-5.5.3-11 0-4.9-1-8.8-1.1-4-3.6-6.8t-6.9-4.4q-4.3-1.5-10.7-1.5m-57.2 1.2V4.6h16V-57zm-466 11.1q5.4 0 8 3.6 2.4 3.6 2 10.3h-23q.7-6.3 3.7-10.1t9.3-3.8m156.6.8q6.8 0 9.6 5.2t2.8 13.8q0 9.9-3 14.4-3.1 4.5-9.4 4.6-3.4 0-5.8-1.4-2.4-1.5-3.9-4c-1.5-2.5-1.7-3.8-2.2-6a36 36 0 0 1-.7-7.6q0-10.2 3.3-14.5a11 11 0 0 1 9.3-4.5m102.4 0q6.9 0 9.7 5.2t2.8 13.8q0 9.9-3 14.4-3.2 4.5-9.5 4.6-3.3 0-5.7-1.4-2.4-1.5-3.9-4c-1.5-2.5-1.7-3.8-2.2-6a36 36 0 0 1-.7-7.6q0-10.2 3.3-14.5a11 11 0 0 1 9.2-4.5m-324.7.2q3.3 0 5.4.7a12 12 0 0 1 3.9 2V-16q-1.1 4.3-3.9 6.6a11 11 0 0 1-7.4 2.3q-6 0-8.8-4.9a25 25 0 0 1-2.8-12.6q0-11.1 3.4-15.7 3.5-4.6 10.2-4.6m491.6 0q11 0 11 17.7 0 10.4-3.4 15a11 11 0 0 1-9.9 4.8q-2.6 0-4.9-.3a15 15 0 0 1-4.2-1.4V-36q1.5-4.3 4.2-6.6a11 11 0 0 1 7.2-2.3m99.9 22.4 3.7.2v8a15 15 0 0 1-4.2 4.6 12 12 0 0 1-7.6 2.2q-3.6 0-5.6-2a7 7 0 0 1-2-5.3q0-2.4 1.5-4 1.7-1.7 4.4-2.5t6.2-1.2z" class="st2" clip-path="url(#SVGID_00000132803911024867366950000017294592350958354089_)" style="fill:#5c4738;fill-opacity:1;stroke-width:2.74087" transform="translate(138.4 22.6)scale(.08004)"/><path d="M-1420.3-214.8c0 35.1-28.8 63.6-64.3 63.5s-64.1-28.6-64-63.7c0-35.2 28.8-63.6 64.2-63.6s64.1 28.6 64 63.8" class="st3" clip-path="url(#SVGID_00000132803911024867366950000017294592350958354089_)" style="fill:#ffb500;fill-opacity:1;stroke-width:5.54798" transform="translate(138.4 22.6)scale(.08004)"/><path d="M-1292-210.2c-.9-8.5-8-14.6-16-13.7a15 15 0 0 0-7.8 2.8l-.8.7a1120 1120 0 0 0-167.9 161.2 1121 1121 0 0 0-168-161.3l-.7-.6a15 15 0 0 0-7.8-2.9c-8-.8-15 5.3-16 13.7q-.2 3.8 1.3 7.2l.7 1.4A1115 1115 0 0 0-1534.6 4.8a1124 1124 0 0 0 26.4 29.7 32.4 32.4 0 0 0 47.8-.5 933 933 0 0 0 26-29.2A1118 1118 0 0 0-1294-201.7l.7-1.4q1.6-3.4 1.3-7.1" class="st4" clip-path="url(#SVGID_00000132803911024867366950000017294592350958354089_)" style="fill:#5bc500;fill-opacity:1;stroke-width:5.54798" transform="translate(138.4 22.6)scale(.08004)"/><path d="M-1405 43.6a293 293 0 0 1 138-139l.5-.2q2-.9 4-1c6.6-.7 12.5 4.3 13.3 11.4a12 12 0 0 1-1.3 6.4l-.4.6a351 351 0 0 1-135.6 137q-4.6 3-9.7 2a12 12 0 0 1-9.8-11.2q-.3-3.2 1-6m-159 0a293 293 0 0 0-138-139l-.5-.3q-2-.9-4-1c-6.6-.7-12.5 4.4-13.2 11.4a12 12 0 0 0 1.3 6.4l.3.6a351 351 0 0 0 135.6 137q4.5 3 9.8 2a12 12 0 0 0 9.7-11.2 10 10 0 0 0-1-6" class="st5" clip-path="url(#SVGID_00000132803911024867366950000017294592350958354089_)" style="fill:#418fe9;fill-opacity:1;stroke-width:5.54798" transform="translate(138.4 22.6)scale(.08004)"/></svg>