<svg xmlns="http://www.w3.org/2000/svg" width="400" height="143.59"><defs><linearGradient id="a" x1="30.089" x2="32.621" y1="16.799" y2="21.193" gradientTransform="matrix(4.8906 0 0 5.3773 -57.2 -35.41)" gradientUnits="userSpaceOnUse"><stop offset="0" stop-color="#e41f13"/><stop offset="1" stop-color="#e30613"/></linearGradient><linearGradient id="b" x1="15.48" x2="20.936" y1="14.78" y2="18.091" gradientTransform="matrix(6.0863 0 0 4.3209 -37.6 -24.03)" gradientUnits="userSpaceOnUse"><stop offset="0" stop-color="#e42313"/><stop offset="1" stop-color="#e41f13"/></linearGradient><linearGradient id="c" x1="10.909" x2="5.453" y1="14.638" y2="18.153" gradientTransform="matrix(6.0629 0 0 4.3376 -10.9 -24.03)" gradientUnits="userSpaceOnUse"><stop offset="0" stop-color="#e42313"/><stop offset="1" stop-color="#e52d12"/></linearGradient><linearGradient id="d" x1="4.744" x2="1.532" y1="14.853" y2="20.198" gradientTransform="matrix(4.3048 0 0 6.109 0 -35.75)" gradientUnits="userSpaceOnUse"><stop offset="0" stop-color="#e52d12"/><stop offset="1" stop-color="#e74018"/></linearGradient><linearGradient id="e" x1="1.468" x2="4.818" y1="25.078" y2="30.733" gradientTransform="matrix(4.3209 0 0 6.0863 0 -64.17)" gradientUnits="userSpaceOnUse"><stop offset="0" stop-color="#e74018"/><stop offset="1" stop-color="#e84617"/></linearGradient><linearGradient id="f" x1="5.354" x2="10.844" y1="47.737" y2="50.785" gradientTransform="matrix(6.0859 0 0 4.3212 -10.9 -82.8)" gradientUnits="userSpaceOnUse"><stop offset="0" stop-color="#e84617"/><stop offset="1" stop-color="#ea561f"/></linearGradient><linearGradient id="g" x1="15.856" x2="20.904" y1="51.602" y2="44.582" gradientTransform="matrix(6.0261 0 0 4.364 -37.6 -80.32)" gradientUnits="userSpaceOnUse"><stop offset=".27" stop-color="#ea561f"/><stop offset="1" stop-color="#e9531e" stop-opacity="0"/></linearGradient><linearGradient id="h" x1="115.91" x2="113.76" y1="20.485" y2="17.137" gradientTransform="matrix(4.8906 0 0 5.3773 -224.8 -35.41)" gradientUnits="userSpaceOnUse"><stop offset="0" stop-color="#006fb9"/><stop offset="1" stop-color="#0078c0"/></linearGradient><linearGradient id="i" x1="87.597" x2="83.049" y1="17.742" y2="15.096" gradientTransform="matrix(6.0863 0 0 4.3209 -205.2 -24.03)" gradientUnits="userSpaceOnUse"><stop offset="0" stop-color="#0078c0"/><stop offset="1" stop-color="#0085ca"/></linearGradient><linearGradient id="j" x1="73.129" x2="77.732" y1="17.785" y2="15.045" gradientTransform="matrix(6.0629 0 0 4.3376 -178.1 -24.03)" gradientUnits="userSpaceOnUse"><stop offset="0" stop-color="#0091d0"/><stop offset="1" stop-color="#0085ca"/></linearGradient><linearGradient id="k" x1="96.283" x2="98.942" y1="19.865" y2="15.343" gradientTransform="matrix(4.3212 0 0 6.0859 -166.9 -35.75)" gradientUnits="userSpaceOnUse"><stop offset="0" stop-color="#009dd7"/><stop offset="1" stop-color="#0091d0"/></linearGradient><linearGradient id="l" x1="96.269" x2="99.027" y1="25.598" y2="30.153" gradientTransform="matrix(4.3209 0 0 6.0863 -166.9 -64.17)" gradientUnits="userSpaceOnUse"><stop offset="0" stop-color="#009dd7"/><stop offset="1" stop-color="#00a9dd"/></linearGradient><linearGradient id="m" x1="72.571" x2="77.462" y1="47.751" y2="50.568" gradientTransform="matrix(6.0859 0 0 4.3212 -178.3 -82.8)" gradientUnits="userSpaceOnUse"><stop offset=".006" stop-color="#00a9dd"/><stop offset=".942" stop-color="#70c5e9"/></linearGradient><linearGradient id="n" x1="83.324" x2="88.777" y1="52.511" y2="44.211" gradientTransform="matrix(6.0258 0 0 4.3643 -206 -80.32)" gradientUnits="userSpaceOnUse"><stop offset=".319" stop-color="#70c5e9"/><stop offset="1" stop-color="#70c5e9" stop-opacity="0"/></linearGradient><linearGradient id="o" x1="2.84" x2="2.84" y1=".051" y2="5.692" gradientTransform="matrix(2.9609 0 0 8.8818 367.9 56.65)" gradientUnits="userSpaceOnUse"><stop offset="0" stop-color="#009767"/><stop offset="1" stop-color="#73ba64"/></linearGradient><linearGradient id="p" x1="135.18" x2="138.42" y1="35.405" y2="37.665" gradientTransform="matrix(4.7155 0 0 5.577 -254.8 -76.59)" gradientUnits="userSpaceOnUse"><stop offset="0" stop-color="#73ba64"/><stop offset="1" stop-color="#73ba64" stop-opacity="0"/></linearGradient><linearGradient id="q" x1="53.795" x2="62.315" y1="14.09" y2="14.09" gradientTransform="matrix(4.5047 0 0 5.8379 -99.2 -24.21)" gradientUnits="userSpaceOnUse"><stop offset=".005" stop-color="#e60064"/><stop offset=".996" stop-color="#e54c88"/></linearGradient><linearGradient id="r" x1="68.121" x2="68.121" y1="14.263" y2="19.681" gradientTransform="matrix(4.8172 0 0 5.4592 -124.8 -24.24)" gradientUnits="userSpaceOnUse"><stop offset=".021" stop-color="#e54c88"/><stop offset="1" stop-color="#e54c88" stop-opacity="0"/></linearGradient></defs><g stroke-width="5.128"><path fill="url(#a)" d="M93.2 79.46h17.123a56.07 56.07 0 0 0-15.897-30.256l-11.62 11.928A37.97 37.97 0 0 1 93.201 79.46z"/><path fill="url(#b)" d="M56 50.23a39.08 39.08 0 0 1 27.826 11.62l11.928-11.928a55.98 55.98 0 0 0-39.446-16.513h-.615v16.82z"/><path fill="url(#c)" d="M56 50.23V33.41a55.17 55.17 0 0 0-39.754 16.82l11.928 11.62A39.27 39.27 0 0 1 56 50.23"/><path fill="url(#d)" d="M16.9 89.13a38.56 38.56 0 0 1 11.62-27.825L16.592 49.377A54.9 54.9 0 0 0 .079 89.131v.61h16.82z"/><path fill="url(#e)" d="M16.9 87.62H.08a56.4 56.4 0 0 0 16.82 40.061l11.62-11.928A39.26 39.26 0 0 1 16.9 87.62"/><path fill="url(#f)" d="M56 126.76a39.08 39.08 0 0 1-27.826-11.62l-11.928 11.928a55.98 55.98 0 0 0 39.446 16.513h.61v-16.82z"/><path fill="url(#g)" d="M86.9 111.48a38.4 38.4 0 0 1-31.19 15.292v16.82a55.32 55.32 0 0 0 44.343-22.015z"/><path fill="url(#h)" d="M334.3 79.46h17.123a56.07 56.07 0 0 0-15.897-30.256l-11.62 11.928a40.6 40.6 0 0 1 10.395 18.328z"/><path fill="url(#i)" d="M296.7 50.23a39.08 39.08 0 0 1 27.826 11.62l11.928-11.928a55.98 55.98 0 0 0-39.446-16.513h-.615v16.82z"/><path fill="url(#j)" d="M297 50.23V33.41a55.17 55.17 0 0 0-39.754 16.82l11.928 11.62A39.27 39.27 0 0 1 297 50.23"/><path fill="url(#k)" d="M258.1 89.13a38.56 38.56 0 0 1 11.62-27.825l-11.928-11.928a55.98 55.98 0 0 0-16.513 39.446v.61h16.82z"/><path fill="url(#l)" d="M258.1 87.62h-16.82a56.4 56.4 0 0 0 16.82 40.061l11.62-11.928A40.56 40.56 0 0 1 258.1 87.62"/><path fill="url(#m)" d="M297 126.76a39.08 39.08 0 0 1-27.826-11.62l-11.62 11.928A55.98 55.98 0 0 0 297 143.581h.61v-16.82z"/><path fill="url(#n)" d="M327.3 111.48a38.4 38.4 0 0 1-31.19 15.292v16.82a55.32 55.32 0 0 0 44.338-22.015z"/><path fill="url(#o)" d="M367.9 56.65h16.82v50.456H367.9z"/><path fill="url(#p)" d="M384.7 105.97c0 11.928 5.503 17.123 15.292 23.851l-9.482 13.759c-14.359-9.482-22.323-19.877-22.323-37.615z"/><path fill="url(#q)" d="M180.4 33.53a52.25 52.25 0 0 0-37 15.287V82.76c2.139-13.456 14.067-32.723 37-32.723h1.226V33.222a2.3 2.3 0 0 1-1.226.308"/><path fill="url(#r)" d="M226.2 85.18h-16.82v-5.502a29.57 29.57 0 0 0-29.051-29.661v-16.82a46.07 46.07 0 0 1 45.872 46.154z"/></g><path fill="#bcbcb6" d="M126.8 37.85h16.82v58.41H126.8zM367.9 0h16.82v58.41H367.9zM209.5 83.34h16.82v58.41H209.5zM52.6 78.93h58.41v16.82H52.6zm240.4 0h58.41v16.82H293z"/></svg>